<svg width="18" height="19" viewBox="0 0 18 19" fill="none" xmlns="http://www.w3.org/2000/svg">
<path d="M15.984 12.6533C14.8172 11.7232 13.6332 11.1599 12.4808 12.0885L11.7927 12.6498C11.2892 13.0572 10.3531 14.9608 6.73382 11.0805C3.11531 7.20508 5.26863 6.60168 5.77286 6.19777L6.46475 5.63581C7.61113 4.70506 7.17851 3.53338 6.3517 2.32728L5.85275 1.59673C5.02217 0.393437 4.11773 -0.396817 2.96834 0.532522L2.3473 1.03828C1.8393 1.38319 0.419334 2.50429 0.0748931 4.63412C-0.339641 7.18962 0.968026 10.116 3.96398 13.3269C6.95617 16.5392 9.88579 18.1527 12.6609 18.1246C14.9672 18.1015 16.3601 16.948 16.7957 16.5287L17.419 16.0222C18.5654 15.0936 17.8531 14.1481 16.6857 13.2159L15.984 12.6533Z" fill="white"/>
</svg>
